<svg width="40" height="40" viewBox="0 0 40 40" fill="none" xmlns="http://www.w3.org/2000/svg">
<path d="M20 3.33372C22.2193 3.34097 24.4151 3.7866 26.4604 4.64483C28.5056 5.50306 30.3597 6.75683 31.9154 8.3336H26.6921C26.2484 8.3336 25.8229 8.50919 25.5091 8.82175C25.1954 9.1343 25.0191 9.55821 25.0191 10.0002C25.0191 10.4422 25.1954 10.8662 25.5091 11.1787C25.8229 11.4913 26.2484 11.6669 26.6921 11.6669H33.6235C34.4474 11.6664 35.2374 11.3402 35.8199 10.7599C36.4025 10.1796 36.7299 9.39262 36.7304 8.57193V1.66709C36.7304 1.22507 36.5541 0.801158 36.2403 0.488604C35.9266 0.176051 35.501 0.000459903 35.0573 0.000459903C34.6136 0.000459903 34.1881 0.176051 33.8743 0.488604C33.5606 0.801158 33.3843 1.22507 33.3843 1.66709V5.13034C30.619 2.64949 27.2151 0.984453 23.5537 0.321701C19.8923 -0.341052 16.1179 0.024646 12.6533 1.37784C9.18874 2.73104 6.1707 5.0183 3.93718 7.98348C1.70367 10.9487 0.342882 14.4747 0.00720086 18.1667C-0.0144091 18.3988 0.0127483 18.6328 0.0869427 18.8539C0.161137 19.0749 0.280742 19.2782 0.438136 19.4507C0.59553 19.6231 0.787262 19.761 1.00112 19.8556C1.21497 19.9502 1.44626 19.9994 1.68024 20C2.08944 20.0052 2.48586 19.8581 2.7919 19.5874C3.09794 19.3168 3.29156 18.9421 3.33487 18.5367C3.70731 14.388 5.62354 10.5281 8.70713 7.71501C11.7907 4.90197 15.8188 3.3392 20 3.33372Z" fill="black"/>
<path d="M20 3.33372C22.2193 3.34097 24.4151 3.7866 26.4604 4.64483C28.5056 5.50306 30.3597 6.75683 31.9154 8.3336H26.6921C26.2484 8.3336 25.8229 8.50919 25.5091 8.82175C25.1954 9.1343 25.0191 9.55821 25.0191 10.0002C25.0191 10.4422 25.1954 10.8662 25.5091 11.1787C25.8229 11.4913 26.2484 11.6669 26.6921 11.6669H33.6235C34.4474 11.6664 35.2374 11.3402 35.8199 10.7599C36.4025 10.1796 36.7299 9.39262 36.7304 8.57193V1.66709C36.7304 1.22507 36.5541 0.801158 36.2403 0.488604C35.9266 0.176051 35.501 0.000459903 35.0573 0.000459903C34.6136 0.000459903 34.1881 0.176051 33.8743 0.488604C33.5606 0.801158 33.3843 1.22507 33.3843 1.66709V5.13034C30.619 2.64949 27.2151 0.984453 23.5537 0.321701C19.8923 -0.341052 16.1179 0.024646 12.6533 1.37784C9.18874 2.73104 6.1707 5.0183 3.93718 7.98348C1.70367 10.9487 0.342882 14.4747 0.00720086 18.1667C-0.0144091 18.3988 0.0127483 18.6328 0.0869427 18.8539C0.161137 19.0749 0.280742 19.2782 0.438136 19.4507C0.59553 19.6231 0.787262 19.761 1.00112 19.8556C1.21497 19.9502 1.44626 19.9994 1.68024 20C2.08944 20.0052 2.48586 19.8581 2.7919 19.5874C3.09794 19.3168 3.29156 18.9421 3.33487 18.5367C3.70731 14.388 5.62354 10.5281 8.70713 7.71501C11.7907 4.90197 15.8188 3.3392 20 3.33372Z" fill="url(#paint0_linear_2547_3884)"/>
<path d="M38.3214 20C37.9122 19.9948 37.5158 20.1419 37.2098 20.4126C36.9037 20.6832 36.7101 21.0579 36.6668 21.4633C36.3902 24.6353 35.2061 27.6617 33.2549 30.1834C31.3037 32.7052 28.6673 34.6165 25.6585 35.6906C22.6496 36.7646 19.3947 36.9564 16.2798 36.2431C13.1648 35.5299 10.3206 33.9415 8.08463 31.6664H13.3079C13.7516 31.6664 14.1771 31.4908 14.4909 31.1783C14.8046 30.8657 14.9809 30.4418 14.9809 29.9998C14.9809 29.5578 14.8046 29.1338 14.4909 28.8213C14.1771 28.5087 13.7516 28.3331 13.3079 28.3331H6.37646C5.9684 28.3329 5.5643 28.4128 5.18727 28.5683C4.81023 28.7237 4.46765 28.9517 4.17911 29.2391C3.89057 29.5266 3.66173 29.8678 3.50568 30.2434C3.34962 30.619 3.26941 31.0216 3.26963 31.4281V38.3329C3.26963 38.7749 3.4459 39.1988 3.75965 39.5114C4.07341 39.824 4.49895 39.9995 4.94267 39.9995C5.38638 39.9995 5.81193 39.824 6.12568 39.5114C6.43944 39.1988 6.6157 38.7749 6.6157 38.3329V34.8697C9.38095 37.3505 12.7849 39.0155 16.4463 39.6783C20.1077 40.3411 23.8821 39.9754 27.3467 38.6222C30.8113 37.269 33.8293 34.9817 36.0628 32.0165C38.2963 29.0513 39.6571 25.5253 39.9928 21.8333C40.0144 21.6012 39.9873 21.3672 39.9131 21.1461C39.8389 20.9251 39.7193 20.7218 39.5619 20.5493C39.4045 20.3769 39.2127 20.239 38.9989 20.1444C38.785 20.0498 38.5554 20.0006 38.3214 20Z" fill="black"/>
<path d="M38.3214 20C37.9122 19.9948 37.5158 20.1419 37.2098 20.4126C36.9037 20.6832 36.7101 21.0579 36.6668 21.4633C36.3902 24.6353 35.2061 27.6617 33.2549 30.1834C31.3037 32.7052 28.6673 34.6165 25.6585 35.6906C22.6496 36.7646 19.3947 36.9564 16.2798 36.2431C13.1648 35.5299 10.3206 33.9415 8.08463 31.6664H13.3079C13.7516 31.6664 14.1771 31.4908 14.4909 31.1783C14.8046 30.8657 14.9809 30.4418 14.9809 29.9998C14.9809 29.5578 14.8046 29.1338 14.4909 28.8213C14.1771 28.5087 13.7516 28.3331 13.3079 28.3331H6.37646C5.9684 28.3329 5.5643 28.4128 5.18727 28.5683C4.81023 28.7237 4.46765 28.9517 4.17911 29.2391C3.89057 29.5266 3.66173 29.8678 3.50568 30.2434C3.34962 30.619 3.26941 31.0216 3.26963 31.4281V38.3329C3.26963 38.7749 3.4459 39.1988 3.75965 39.5114C4.07341 39.824 4.49895 39.9995 4.94267 39.9995C5.38638 39.9995 5.81193 39.824 6.12568 39.5114C6.43944 39.1988 6.6157 38.7749 6.6157 38.3329V34.8697C9.38095 37.3505 12.7849 39.0155 16.4463 39.6783C20.1077 40.3411 23.8821 39.9754 27.3467 38.6222C30.8113 37.269 33.8293 34.9817 36.0628 32.0165C38.2963 29.0513 39.6571 25.5253 39.9928 21.8333C40.0144 21.6012 39.9873 21.3672 39.9131 21.1461C39.8389 20.9251 39.7193 20.7218 39.5619 20.5493C39.4045 20.3769 39.2127 20.239 38.9989 20.1444C38.785 20.0498 38.5554 20.0006 38.3214 20Z" fill="url(#paint1_linear_2547_3884)"/>
<defs>
<linearGradient id="paint0_linear_2547_3884" x1="-0.695653" y1="1.80498e-06" x2="44.4331" y2="5.56773" gradientUnits="userSpaceOnUse">
<stop stop-color="#17E1E1"/>
<stop offset="1" stop-color="#3675D4"/>
</linearGradient>
<linearGradient id="paint1_linear_2547_3884" x1="-0.695653" y1="1.80498e-06" x2="44.4331" y2="5.56773" gradientUnits="userSpaceOnUse">
<stop stop-color="#17E1E1"/>
<stop offset="1" stop-color="#3675D4"/>
</linearGradient>
</defs>
</svg>
