<svg width="37" height="43" viewBox="0 0 37 43" fill="none" xmlns="http://www.w3.org/2000/svg">
<path d="M19.5079 10.2249C18.8013 9.5244 18.8013 8.39208 19.5079 7.69155L23.1224 4.10825C23.829 3.40771 24.9712 3.40771 25.6778 4.10825C26.3845 4.80878 26.3845 5.9411 25.6778 6.64164L22.0633 10.2249C21.7109 10.5743 21.2483 10.7499 20.7856 10.7499C20.323 10.7499 19.8603 10.5743 19.5079 10.2249ZM5.0499 10.2249C5.40232 10.5743 5.86497 10.7499 6.32763 10.7499C6.79028 10.7499 7.25294 10.5743 7.60535 10.2249C8.31198 9.5244 8.31198 8.39208 7.60535 7.69155L3.99085 4.10825C3.28422 3.40771 2.14204 3.40771 1.43541 4.10825C0.728773 4.80878 0.728773 5.9411 1.43541 6.64164L5.0499 10.2249ZM13.5566 8.95824C14.556 8.95824 15.3639 8.15558 15.3639 7.16659V1.79165C15.3639 0.802658 14.556 0 13.5566 0C12.5572 0 11.7494 0.802658 11.7494 1.79165V7.16659C11.7494 8.15558 12.5572 8.95824 13.5566 8.95824ZM36.0478 9.38107C35.1225 8.109 33.6984 7.30813 32.1387 7.18272C30.561 7.04655 29.0447 7.6163 27.9369 8.71458L13.6867 22.8901L13.3669 19.4071C13.3199 17.9971 12.7217 16.691 11.6807 15.7289C10.6415 14.765 9.2373 14.2723 7.8674 14.3099C4.93062 14.4084 2.61915 16.8558 2.71313 19.7081V36.2934C2.71313 37.2502 2.33542 38.1496 1.65228 38.8268L0.529975 39.9412C-0.176658 40.6417 -0.176658 41.7759 0.529975 42.4764C0.882389 42.8258 1.34504 42.9996 1.8077 42.9996C2.27035 42.9996 2.73301 42.824 3.08542 42.4746L4.20772 41.3602C5.574 40.0075 6.32582 38.2069 6.32582 36.2934V19.649C6.2951 18.712 7.04149 17.9219 7.98668 17.8914C8.48006 17.8574 8.87946 18.0383 9.2138 18.3465C9.54814 18.6564 9.73971 19.0757 9.7614 19.6293L10.1572 23.983C10.271 25.2443 11.0879 26.2942 12.2879 26.7242C13.4861 27.1542 14.7928 26.8658 15.6946 25.9699L30.4941 11.248C30.8484 10.895 31.3255 10.7105 31.8478 10.7553C32.3574 10.7965 32.8074 11.0527 33.1147 11.4755C33.5845 12.1223 33.44 13.1364 32.7857 13.7849L24.2013 22.2953C23.6121 22.8793 23.5019 23.7877 23.9356 24.4918L28.8152 32.4521C30.3929 34.7974 30.0785 37.9471 28.0688 39.9412C27.3622 40.6417 27.3622 41.7759 28.0688 42.4746C28.7755 43.1751 29.9176 43.1751 30.6243 42.4746C33.8484 39.2765 34.3526 34.2259 31.864 30.5297L27.7616 23.8343L35.3412 16.3183C37.246 14.4317 37.5496 11.4486 36.0478 9.38107Z" fill="black"/>
<path d="M19.5079 10.2249C18.8013 9.5244 18.8013 8.39208 19.5079 7.69155L23.1224 4.10825C23.829 3.40771 24.9712 3.40771 25.6778 4.10825C26.3845 4.80878 26.3845 5.9411 25.6778 6.64164L22.0633 10.2249C21.7109 10.5743 21.2483 10.7499 20.7856 10.7499C20.323 10.7499 19.8603 10.5743 19.5079 10.2249ZM5.0499 10.2249C5.40232 10.5743 5.86497 10.7499 6.32763 10.7499C6.79028 10.7499 7.25294 10.5743 7.60535 10.2249C8.31198 9.5244 8.31198 8.39208 7.60535 7.69155L3.99085 4.10825C3.28422 3.40771 2.14204 3.40771 1.43541 4.10825C0.728773 4.80878 0.728773 5.9411 1.43541 6.64164L5.0499 10.2249ZM13.5566 8.95824C14.556 8.95824 15.3639 8.15558 15.3639 7.16659V1.79165C15.3639 0.802658 14.556 0 13.5566 0C12.5572 0 11.7494 0.802658 11.7494 1.79165V7.16659C11.7494 8.15558 12.5572 8.95824 13.5566 8.95824ZM36.0478 9.38107C35.1225 8.109 33.6984 7.30813 32.1387 7.18272C30.561 7.04655 29.0447 7.6163 27.9369 8.71458L13.6867 22.8901L13.3669 19.4071C13.3199 17.9971 12.7217 16.691 11.6807 15.7289C10.6415 14.765 9.2373 14.2723 7.8674 14.3099C4.93062 14.4084 2.61915 16.8558 2.71313 19.7081V36.2934C2.71313 37.2502 2.33542 38.1496 1.65228 38.8268L0.529975 39.9412C-0.176658 40.6417 -0.176658 41.7759 0.529975 42.4764C0.882389 42.8258 1.34504 42.9996 1.8077 42.9996C2.27035 42.9996 2.73301 42.824 3.08542 42.4746L4.20772 41.3602C5.574 40.0075 6.32582 38.2069 6.32582 36.2934V19.649C6.2951 18.712 7.04149 17.9219 7.98668 17.8914C8.48006 17.8574 8.87946 18.0383 9.2138 18.3465C9.54814 18.6564 9.73971 19.0757 9.7614 19.6293L10.1572 23.983C10.271 25.2443 11.0879 26.2942 12.2879 26.7242C13.4861 27.1542 14.7928 26.8658 15.6946 25.9699L30.4941 11.248C30.8484 10.895 31.3255 10.7105 31.8478 10.7553C32.3574 10.7965 32.8074 11.0527 33.1147 11.4755C33.5845 12.1223 33.44 13.1364 32.7857 13.7849L24.2013 22.2953C23.6121 22.8793 23.5019 23.7877 23.9356 24.4918L28.8152 32.4521C30.3929 34.7974 30.0785 37.9471 28.0688 39.9412C27.3622 40.6417 27.3622 41.7759 28.0688 42.4746C28.7755 43.1751 29.9176 43.1751 30.6243 42.4746C33.8484 39.2765 34.3526 34.2259 31.864 30.5297L27.7616 23.8343L35.3412 16.3183C37.246 14.4317 37.5496 11.4486 36.0478 9.38107Z" fill="url(#paint0_linear_2549_343)"/>
<defs>
<linearGradient id="paint0_linear_2549_343" x1="-0.643479" y1="1.94035e-06" x2="41.2637" y2="4.44884" gradientUnits="userSpaceOnUse">
<stop stop-color="#17E1E1"/>
<stop offset="1" stop-color="#3675D4"/>
</linearGradient>
</defs>
</svg>
