<svg width="40" height="40" viewBox="0 0 40 40" fill="none" xmlns="http://www.w3.org/2000/svg">
<g clip-path="url(#clip0_2560_504)">
<path fill-rule="evenodd" clip-rule="evenodd" d="M0.0404095 14.7923L11.1375 1.95967C11.1656 1.92798 11.205 1.90858 11.2472 1.90566C11.2894 1.90274 11.3311 1.91652 11.3633 1.94405L27.8015 16.1583C27.8332 16.1868 27.8525 16.2266 27.8554 16.2692C27.8584 16.3117 27.8446 16.3538 27.8171 16.3864L16.7203 29.2187C16.6919 29.2506 16.6521 29.27 16.6095 29.273C16.5669 29.276 16.5248 29.2623 16.4922 29.2347L0.056347 15.0203C0.0401582 15.0065 0.0268906 14.9896 0.0173213 14.9705C0.00775205 14.9515 0.00207353 14.9308 0.000618396 14.9096C-0.000836741 14.8883 0.00196076 14.867 0.00884704 14.8469C0.0157333 14.8267 0.0265699 14.8082 0.040722 14.7923H0.0404095Z" fill="#006694"/>
<path fill-rule="evenodd" clip-rule="evenodd" d="M7.40452 8.75109L15.1516 5.21875L27.8018 16.1583C27.8335 16.1869 27.8528 16.2266 27.8557 16.2692C27.8587 16.3118 27.8449 16.3538 27.8174 16.3864L16.7206 29.2188C16.6922 29.2506 16.6524 29.2701 16.6098 29.2731C16.5672 29.276 16.5251 29.2623 16.4925 29.2348L15.7058 28.5529L7.07616 9.62914C7.00358 9.46915 6.99736 9.28691 7.05886 9.12234C7.12036 8.95777 7.24457 8.82428 7.40429 8.75109H7.40452Z" fill="#005C85"/>
<path fill-rule="evenodd" clip-rule="evenodd" d="M7.6119 9.20724L23.0489 2.16951C23.0876 2.15222 23.1316 2.1509 23.1713 2.16585C23.211 2.1808 23.2432 2.2108 23.261 2.24935L32.276 22.0217C32.2851 22.0408 32.2903 22.0616 32.2914 22.0828C32.2924 22.104 32.2892 22.1251 32.282 22.1451C32.2748 22.165 32.2637 22.1833 32.2494 22.199C32.235 22.2146 32.2177 22.2272 32.1985 22.2361L16.7614 29.2735C16.7223 29.2906 16.6781 29.2918 16.6381 29.2769C16.5981 29.262 16.5655 29.2322 16.5471 29.1936L7.53206 9.42193C7.51457 9.38287 7.51314 9.3385 7.52808 9.29839C7.54301 9.25828 7.57312 9.22566 7.6119 9.20755V9.20724Z" fill="#60B7FF"/>
<path fill-rule="evenodd" clip-rule="evenodd" d="M16.7751 6.7854H25.3298L32.276 22.0217C32.2851 22.0409 32.2903 22.0616 32.2914 22.0828C32.2924 22.104 32.2892 22.1252 32.282 22.1451C32.2748 22.1651 32.2637 22.1834 32.2494 22.199C32.235 22.2146 32.2177 22.2272 32.1985 22.2361L16.7614 29.2735C16.7223 29.2906 16.6781 29.2919 16.6381 29.277C16.5981 29.2621 16.5654 29.2322 16.5471 29.1937L16.1138 28.2406V7.44899C16.1136 7.36199 16.1305 7.2758 16.1637 7.19535C16.1968 7.11491 16.2455 7.04178 16.3069 6.98015C16.3683 6.91852 16.4413 6.8696 16.5216 6.83619C16.602 6.80277 16.6881 6.78551 16.7751 6.7854Z" fill="#56A5E6"/>
<path fill-rule="evenodd" clip-rule="evenodd" d="M16.7751 7.28711H29.4093L33.902 11.7798V29.1782C33.9018 29.2211 33.8847 29.2622 33.8544 29.2925C33.8241 29.3228 33.783 29.34 33.7401 29.3402H16.7751C16.754 29.34 16.7331 29.3357 16.7136 29.3275C16.6942 29.3193 16.6765 29.3073 16.6617 29.2923C16.6469 29.2772 16.6352 29.2594 16.6272 29.2398C16.6193 29.2203 16.6153 29.1993 16.6155 29.1782V7.44898C16.6153 7.42787 16.6193 7.40693 16.6272 7.38735C16.6352 7.36778 16.6469 7.34997 16.6617 7.33493C16.6765 7.3199 16.6942 7.30793 16.7136 7.29973C16.7331 7.29152 16.754 7.28723 16.7751 7.28711Z" fill="#EAF6FF"/>
<path fill-rule="evenodd" clip-rule="evenodd" d="M29.4094 7.28711V10.7715C29.4099 11.0386 29.5163 11.2947 29.7052 11.4835C29.8941 11.6724 30.1501 11.7788 30.4172 11.7793H33.9016L29.4094 7.28711Z" fill="#BEC7CF"/>
<path fill-rule="evenodd" clip-rule="evenodd" d="M20.6611 22.6079H33.918C34.5899 22.6099 35.2337 22.8777 35.7089 23.3529C36.184 23.828 36.4519 24.4719 36.4539 25.1438V35.559C36.4522 36.2311 36.1845 36.8752 35.7093 37.3504C35.2341 37.8257 34.59 38.0934 33.918 38.0951H10.4147C9.74271 38.093 9.09885 37.8252 8.6237 37.35C8.14854 36.8749 7.8807 36.231 7.87866 35.559V20.0719C7.88015 19.5197 8.10031 18.9906 8.49097 18.6004C8.88162 18.2102 9.41096 17.9906 9.96312 17.9897H14.3896C15.124 17.9897 15.6234 18.4413 16.1479 18.9522L18.9028 21.6454C19.4273 22.1586 19.9268 22.6079 20.6611 22.6079Z" fill="#FFBA57"/>
<path d="M19.3772 11.7182C19.229 11.7164 19.0874 11.6563 18.9832 11.5509C18.879 11.4454 18.8205 11.3031 18.8205 11.1549C18.8205 11.0066 18.879 10.8643 18.9832 10.7589C19.0874 10.6534 19.229 10.5933 19.3772 10.5916H26.8255C26.9738 10.5933 27.1154 10.6534 27.2196 10.7589C27.3238 10.8643 27.3823 11.0066 27.3823 11.1549C27.3823 11.3031 27.3238 11.4454 27.2196 11.5509C27.1154 11.6563 26.9738 11.7164 26.8255 11.7182H19.3772ZM19.3772 19.9369C19.2279 19.9369 19.0846 19.8776 18.9789 19.772C18.8733 19.6663 18.814 19.5231 18.814 19.3737C18.814 19.2243 18.8733 19.081 18.9789 18.9754C19.0846 18.8697 19.2279 18.8104 19.3772 18.8104H31.1403C31.2897 18.8104 31.433 18.8697 31.5386 18.9754C31.6442 19.081 31.7036 19.2243 31.7036 19.3737C31.7036 19.5231 31.6442 19.6663 31.5386 19.772C31.433 19.8776 31.2897 19.9369 31.1403 19.9369H19.3772ZM19.3772 17.198C19.229 17.1963 19.0874 17.1362 18.9832 17.0307C18.879 16.9253 18.8205 16.783 18.8205 16.6347C18.8205 16.4865 18.879 16.3442 18.9832 16.2387C19.0874 16.1333 19.229 16.0731 19.3772 16.0714H31.1403C31.2148 16.0705 31.2888 16.0844 31.3579 16.1124C31.427 16.1403 31.4899 16.1816 31.5429 16.234C31.5959 16.2864 31.638 16.3488 31.6668 16.4176C31.6955 16.4864 31.7103 16.5602 31.7103 16.6347C31.7103 16.7093 31.6955 16.7831 31.6668 16.8518C31.638 16.9206 31.5959 16.983 31.5429 17.0354C31.4899 17.0878 31.427 17.1292 31.3579 17.1571C31.2888 17.185 31.2148 17.1989 31.1403 17.198H19.3772ZM19.3772 14.4591C19.3033 14.4591 19.23 14.4445 19.1617 14.4162C19.0933 14.3879 19.0313 14.3464 18.9789 14.2941C18.9266 14.2418 18.8851 14.1797 18.8568 14.1113C18.8285 14.043 18.814 13.9697 18.814 13.8958C18.814 13.8218 18.8285 13.7486 18.8568 13.6802C18.8851 13.6119 18.9266 13.5498 18.9789 13.4975C19.0313 13.4452 19.0933 13.4037 19.1617 13.3754C19.23 13.3471 19.3033 13.3325 19.3772 13.3325H31.1403C31.2143 13.3325 31.2875 13.3471 31.3559 13.3754C31.4242 13.4037 31.4863 13.4452 31.5386 13.4975C31.5909 13.5498 31.6324 13.6119 31.6607 13.6802C31.689 13.7486 31.7036 13.8218 31.7036 13.8958C31.7036 13.9697 31.689 14.043 31.6607 14.1113C31.6324 14.1797 31.5909 14.2418 31.5386 14.2941C31.4863 14.3464 31.4242 14.3879 31.3559 14.4162C31.2875 14.4445 31.2143 14.4591 31.1403 14.4591H19.3772Z" fill="#BEC7CF"/>
<path d="M11.4571 31.2943C11.3077 31.2943 11.1644 31.2349 11.0588 31.1293C10.9531 31.0237 10.8938 30.8804 10.8938 30.731C10.8938 30.5816 10.9531 30.4383 11.0588 30.3327C11.1644 30.2271 11.3077 30.1677 11.4571 30.1677H16.9509C17.1003 30.1677 17.2436 30.2271 17.3492 30.3327C17.4548 30.4383 17.5142 30.5816 17.5142 30.731C17.5142 30.8804 17.4548 31.0237 17.3492 31.1293C17.2436 31.2349 17.1003 31.2943 16.9509 31.2943H11.4571ZM11.4571 35.1416C11.3077 35.1416 11.1644 35.0822 11.0588 34.9766C10.9531 34.8709 10.8938 34.7277 10.8938 34.5783C10.8938 34.4289 10.9531 34.2856 11.0588 34.18C11.1644 34.0743 11.3077 34.015 11.4571 34.015H32.8759C33.0253 34.015 33.1686 34.0743 33.2742 34.18C33.3798 34.2856 33.4392 34.4289 33.4392 34.5783C33.4392 34.7277 33.3798 34.8709 33.2742 34.9766C33.1686 35.0822 33.0253 35.1416 32.8759 35.1416H11.4571Z" fill="#CF9646"/>
<path fill-rule="evenodd" clip-rule="evenodd" d="M33.9021 23.0343C34.2501 23.2655 34.5356 23.5789 34.7333 23.9469C34.931 24.3149 35.0349 24.7259 35.0357 25.1437V35.559C35.034 36.2311 34.7663 36.8752 34.291 37.3504C33.8158 37.8257 33.1717 38.0934 32.4996 38.0951H33.9182C34.5902 38.0934 35.2343 37.8257 35.7095 37.3504C36.1847 36.8752 36.4524 36.2311 36.4541 35.559V25.1438C36.4546 24.8111 36.3887 24.4816 36.2603 24.1746C36.0674 23.712 35.7423 23.3165 35.3256 23.0378C34.909 22.7591 34.4194 22.6096 33.9182 22.6079H32.4996C32.9991 22.6078 33.4873 22.7562 33.9021 23.0343ZM18.903 21.6454L16.6157 19.4105L16.1481 18.9522C15.6236 18.4413 15.1242 17.9897 14.3898 17.9897H12.9736C13.7057 17.9897 14.2051 18.4413 14.7296 18.9522L16.6157 20.7948L17.4868 21.6454C18.009 22.1586 18.5085 22.6079 19.2429 22.6079H20.6613C19.9269 22.6079 19.4275 22.1586 18.903 21.6454Z" fill="#E6A74E"/>
<path fill-rule="evenodd" clip-rule="evenodd" d="M35.1997 30.0947C36.1492 30.0947 37.0773 29.8132 37.8668 29.2857C38.6562 28.7582 39.2715 28.0085 39.6348 27.1313C39.9982 26.2541 40.0933 25.2889 39.908 24.3577C39.7228 23.4264 39.2656 22.5711 38.5942 21.8997C37.9228 21.2283 37.0675 20.7711 36.1363 20.5859C35.205 20.4007 34.2398 20.4957 33.3626 20.8591C32.4854 21.2224 31.7357 21.8377 31.2082 22.6272C30.6807 23.4166 30.3992 24.3447 30.3992 25.2942C30.4015 26.5667 30.9081 27.7863 31.8078 28.6861C32.7076 29.5858 33.9273 30.0924 35.1997 30.0947Z" fill="#25C73B"/>
<path d="M32.3307 25.9463C32.2771 25.8944 32.2342 25.8322 32.2048 25.7636C32.1754 25.6949 32.1599 25.6211 32.1592 25.5463C32.1586 25.4716 32.1728 25.3975 32.201 25.3284C32.2293 25.2592 32.271 25.1963 32.3237 25.1434C32.3765 25.0905 32.4393 25.0486 32.5084 25.0202C32.5775 24.9918 32.6515 24.9774 32.7262 24.9779C32.801 24.9783 32.8748 24.9936 32.9436 25.0229C33.0123 25.0522 33.0746 25.0948 33.1267 25.1484L34.2076 26.2293L37.2701 23.1668C37.3757 23.0613 37.5188 23.002 37.6681 23.002C37.8173 23.0019 37.9605 23.0612 38.066 23.1668C38.1716 23.2723 38.2309 23.4155 38.2309 23.5647C38.2309 23.714 38.1716 23.8571 38.0661 23.9627L34.6044 27.4242C34.4987 27.5293 34.3556 27.5883 34.2065 27.5883C34.0574 27.5883 33.9143 27.5293 33.8086 27.4242L32.3307 25.9463Z" fill="#EAF6FF"/>
<path fill-rule="evenodd" clip-rule="evenodd" d="M34.7916 20.5096C35.9694 20.6095 37.069 21.1403 37.8798 22.0004C38.6906 22.8605 39.1557 23.9895 39.1859 25.1712C39.2161 26.3529 38.8094 27.5042 38.0436 28.4046C37.2779 29.3051 36.2068 29.8914 35.0356 30.0514C34.9546 30.0629 34.8732 30.072 34.7916 30.0787C34.8737 30.0856 34.9535 30.0901 35.0356 30.0925C35.0903 30.0947 35.145 30.0947 35.1997 30.0947C35.6234 30.0955 36.0452 30.0395 36.454 29.9283C37.5772 29.6242 38.5517 28.9225 39.1963 27.9538C39.8409 26.985 40.1117 25.8151 39.9584 24.6617C39.805 23.5082 39.238 22.4497 38.3626 21.683C37.4873 20.9164 36.3633 20.4937 35.1997 20.4937C35.0628 20.4937 34.9263 20.4982 34.7915 20.5093L34.7916 20.5096Z" fill="#21B335"/>
<path fill-rule="evenodd" clip-rule="evenodd" d="M32.8757 11.7798V21.0913C33.2003 20.9119 33.5447 20.771 33.902 20.6717V11.7798H32.8757Z" fill="#D3DDE6"/>
</g>
<defs>
<clipPath id="clip0_2560_504">
<rect width="40" height="40" fill="white"/>
</clipPath>
</defs>
</svg>
