<svg width="36" height="43" viewBox="0 0 36 43" fill="none" xmlns="http://www.w3.org/2000/svg">
<path d="M29.8458 3.83454L18.5688 0.091805C18.1996 -0.0306017 17.8004 -0.0306017 17.4312 0.091805L6.1542 3.83454C4.36123 4.42736 2.80155 5.56751 1.69676 7.09301C0.591973 8.61851 -0.00173101 10.4518 3.79101e-06 12.3323V21.5001C3.79101e-06 35.0503 16.56 42.5339 17.2692 42.8457C17.4993 42.9474 17.7482 43 18 43C18.2518 43 18.5007 42.9474 18.7308 42.8457C19.44 42.5339 36 35.0503 36 21.5001V12.3323C36.0017 10.4518 35.408 8.61851 34.3032 7.09301C33.1984 5.56751 31.6388 4.42736 29.8458 3.83454ZM32.4 21.5001C32.4 31.2735 21.0258 37.684 18 39.2176C14.9706 37.6894 3.6 31.2986 3.6 21.5001V12.3323C3.60011 11.204 3.9569 10.1045 4.61982 9.18929C5.28274 8.27412 6.21818 7.5898 7.2936 7.23328L18 3.68046L28.7064 7.23328C29.7818 7.5898 30.7173 8.27412 31.3802 9.18929C32.0431 10.1045 32.3999 11.204 32.4 12.3323V21.5001Z" fill="black"/>
<path d="M29.8458 3.83454L18.5688 0.091805C18.1996 -0.0306017 17.8004 -0.0306017 17.4312 0.091805L6.1542 3.83454C4.36123 4.42736 2.80155 5.56751 1.69676 7.09301C0.591973 8.61851 -0.00173101 10.4518 3.79101e-06 12.3323V21.5001C3.79101e-06 35.0503 16.56 42.5339 17.2692 42.8457C17.4993 42.9474 17.7482 43 18 43C18.2518 43 18.5007 42.9474 18.7308 42.8457C19.44 42.5339 36 35.0503 36 21.5001V12.3323C36.0017 10.4518 35.408 8.61851 34.3032 7.09301C33.1984 5.56751 31.6388 4.42736 29.8458 3.83454ZM32.4 21.5001C32.4 31.2735 21.0258 37.684 18 39.2176C14.9706 37.6894 3.6 31.2986 3.6 21.5001V12.3323C3.60011 11.204 3.9569 10.1045 4.61982 9.18929C5.28274 8.27412 6.21818 7.5898 7.2936 7.23328L18 3.68046L28.7064 7.23328C29.7818 7.5898 30.7173 8.27412 31.3802 9.18929C32.0431 10.1045 32.3999 11.204 32.4 12.3323V21.5001Z" fill="url(#paint0_linear_2547_3892)"/>
<path d="M23.94 14.871L16.4016 22.3959L12.3624 18.2035C12.2003 18.0271 12.0044 17.8847 11.7862 17.7849C11.5679 17.685 11.3318 17.6296 11.0918 17.6219C10.8517 17.6143 10.6126 17.6545 10.3884 17.7403C10.1642 17.8261 9.95949 17.9557 9.78638 18.1214C9.61328 18.2871 9.47524 18.4856 9.38041 18.7053C9.28558 18.9249 9.23588 19.1612 9.23422 19.4003C9.23256 19.6394 9.27899 19.8763 9.37077 20.0973C9.46255 20.3182 9.59782 20.5186 9.76862 20.6867L13.9194 24.9866C14.229 25.3194 14.6031 25.5863 15.0192 25.7711C15.4354 25.9558 15.8848 26.0547 16.3404 26.0616H16.3998C16.8463 26.0631 17.2887 25.9763 17.7012 25.8062C18.1137 25.6361 18.4881 25.3861 18.8028 25.0708L26.4924 17.417C26.6604 17.2501 26.7937 17.052 26.8847 16.8339C26.9757 16.6159 27.0227 16.3821 27.0229 16.1459C27.0232 15.9097 26.9767 15.6758 26.8861 15.4576C26.7956 15.2393 26.6627 15.0409 26.4951 14.8737C26.3275 14.7066 26.1285 14.5739 25.9094 14.4833C25.6903 14.3927 25.4554 14.3459 25.2181 14.3457C24.9809 14.3454 24.7459 14.3917 24.5266 14.4818C24.3073 14.572 24.108 14.7042 23.94 14.871Z" fill="black"/>
<path d="M23.94 14.871L16.4016 22.3959L12.3624 18.2035C12.2003 18.0271 12.0044 17.8847 11.7862 17.7849C11.5679 17.685 11.3318 17.6296 11.0918 17.6219C10.8517 17.6143 10.6126 17.6545 10.3884 17.7403C10.1642 17.8261 9.95949 17.9557 9.78638 18.1214C9.61328 18.2871 9.47524 18.4856 9.38041 18.7053C9.28558 18.9249 9.23588 19.1612 9.23422 19.4003C9.23256 19.6394 9.27899 19.8763 9.37077 20.0973C9.46255 20.3182 9.59782 20.5186 9.76862 20.6867L13.9194 24.9866C14.229 25.3194 14.6031 25.5863 15.0192 25.7711C15.4354 25.9558 15.8848 26.0547 16.3404 26.0616H16.3998C16.8463 26.0631 17.2887 25.9763 17.7012 25.8062C18.1137 25.6361 18.4881 25.3861 18.8028 25.0708L26.4924 17.417C26.6604 17.2501 26.7937 17.052 26.8847 16.8339C26.9757 16.6159 27.0227 16.3821 27.0229 16.1459C27.0232 15.9097 26.9767 15.6758 26.8861 15.4576C26.7956 15.2393 26.6627 15.0409 26.4951 14.8737C26.3275 14.7066 26.1285 14.5739 25.9094 14.4833C25.6903 14.3927 25.4554 14.3459 25.2181 14.3457C24.9809 14.3454 24.7459 14.3917 24.5266 14.4818C24.3073 14.572 24.108 14.7042 23.94 14.871Z" fill="url(#paint1_linear_2547_3892)"/>
<defs>
<linearGradient id="paint0_linear_2547_3892" x1="-0.626087" y1="1.94035e-06" x2="40.1728" y2="4.21412" gradientUnits="userSpaceOnUse">
<stop stop-color="#17E1E1"/>
<stop offset="1" stop-color="#3675D4"/>
</linearGradient>
<linearGradient id="paint1_linear_2547_3892" x1="-0.626087" y1="1.94035e-06" x2="40.1728" y2="4.21412" gradientUnits="userSpaceOnUse">
<stop stop-color="#17E1E1"/>
<stop offset="1" stop-color="#3675D4"/>
</linearGradient>
</defs>
</svg>
