<svg width="40" height="40" viewBox="0 0 40 40" fill="none" xmlns="http://www.w3.org/2000/svg">
<path d="M31.5381 19.7743H23.5836C22.6884 19.7743 21.8298 19.4182 21.1968 18.7843C20.5637 18.1504 20.2081 17.2906 20.2081 16.3941V8.4067C20.2104 7.62923 20.0341 6.86164 19.6929 6.16328C19.3516 5.46492 18.8546 4.85449 18.2402 4.3792C17.658 3.91748 16.9775 3.59597 16.2515 3.43948C15.5254 3.28299 14.7732 3.29572 14.0528 3.47669C9.96111 4.49381 6.33861 6.87896 3.78442 10.2377C1.23023 13.5964 -0.102662 17.7276 0.00617395 21.9479C0.11501 26.1682 1.65906 30.2249 4.38296 33.4472C7.10687 36.6694 10.8475 38.8642 14.9862 39.6685C19.6395 40.5604 24.4573 39.637 28.4529 37.0876C32.4485 34.5381 35.3196 30.5553 36.4782 25.955C36.6595 25.2327 36.6728 24.4784 36.5168 23.7501C36.3608 23.0219 36.0398 22.3394 35.5786 21.7551C35.0983 21.1407 34.4853 20.6432 33.7854 20.3002C33.0856 19.9571 32.3172 19.7773 31.5381 19.7743ZM33.2056 25.1285C32.5594 27.7344 31.2335 30.1217 29.3637 32.0461C27.4938 33.9706 25.1471 35.3631 22.5634 36.0814C19.9798 36.7996 17.252 36.8177 14.6591 36.1339C12.0661 35.4501 9.70113 34.0889 7.80592 32.1895C5.91071 30.2901 4.55333 27.9207 3.87261 25.3236C3.19189 22.7265 3.21226 19.995 3.93164 17.4083C4.65102 14.8217 6.04359 12.4729 7.96692 10.602C9.89025 8.7312 12.2753 7.4055 14.8781 6.76055C15.1008 6.70484 15.3334 6.70211 15.5573 6.75259C15.7813 6.80307 15.9902 6.90535 16.1676 7.05124C16.377 7.21114 16.5469 7.4172 16.664 7.65343C16.781 7.88967 16.8422 8.14974 16.8427 8.41346V16.3941C16.8427 18.1871 17.554 19.9066 18.82 21.1744C20.0861 22.4422 21.8033 23.1545 23.5938 23.1545H31.5465C31.8122 23.1556 32.0741 23.217 32.3127 23.3341C32.5512 23.4512 32.7601 23.6209 32.9237 23.8305C33.0672 24.0106 33.1671 24.2215 33.2157 24.4467C33.2643 24.6718 33.262 24.9052 33.2056 25.1285Z" fill="black"/>
<path d="M31.5381 19.7743H23.5836C22.6884 19.7743 21.8298 19.4182 21.1968 18.7843C20.5637 18.1504 20.2081 17.2906 20.2081 16.3941V8.4067C20.2104 7.62923 20.0341 6.86164 19.6929 6.16328C19.3516 5.46492 18.8546 4.85449 18.2402 4.3792C17.658 3.91748 16.9775 3.59597 16.2515 3.43948C15.5254 3.28299 14.7732 3.29572 14.0528 3.47669C9.96111 4.49381 6.33861 6.87896 3.78442 10.2377C1.23023 13.5964 -0.102662 17.7276 0.00617395 21.9479C0.11501 26.1682 1.65906 30.2249 4.38296 33.4472C7.10687 36.6694 10.8475 38.8642 14.9862 39.6685C19.6395 40.5604 24.4573 39.637 28.4529 37.0876C32.4485 34.5381 35.3196 30.5553 36.4782 25.955C36.6595 25.2327 36.6728 24.4784 36.5168 23.7501C36.3608 23.0219 36.0398 22.3394 35.5786 21.7551C35.0983 21.1407 34.4853 20.6432 33.7854 20.3002C33.0856 19.9571 32.3172 19.7773 31.5381 19.7743ZM33.2056 25.1285C32.5594 27.7344 31.2335 30.1217 29.3637 32.0461C27.4938 33.9706 25.1471 35.3631 22.5634 36.0814C19.9798 36.7996 17.252 36.8177 14.6591 36.1339C12.0661 35.4501 9.70113 34.0889 7.80592 32.1895C5.91071 30.2901 4.55333 27.9207 3.87261 25.3236C3.19189 22.7265 3.21226 19.995 3.93164 17.4083C4.65102 14.8217 6.04359 12.4729 7.96692 10.602C9.89025 8.7312 12.2753 7.4055 14.8781 6.76055C15.1008 6.70484 15.3334 6.70211 15.5573 6.75259C15.7813 6.80307 15.9902 6.90535 16.1676 7.05124C16.377 7.21114 16.5469 7.4172 16.664 7.65343C16.781 7.88967 16.8422 8.14974 16.8427 8.41346V16.3941C16.8427 18.1871 17.554 19.9066 18.82 21.1744C20.0861 22.4422 21.8033 23.1545 23.5938 23.1545H31.5465C31.8122 23.1556 32.0741 23.217 32.3127 23.3341C32.5512 23.4512 32.7601 23.6209 32.9237 23.8305C33.0672 24.0106 33.1671 24.2215 33.2157 24.4467C33.2643 24.6718 33.262 24.9052 33.2056 25.1285Z" fill="url(#paint0_linear_2549_336)"/>
<path d="M39.8723 12.0776C39.0952 9.21706 37.5857 6.60929 35.4932 4.51234C33.4006 2.4154 30.7975 0.901974 27.9415 0.12184C27.642 0.041238 27.3334 0.000326476 27.0233 0.000152547C26.5773 -0.00409024 26.1349 0.080209 25.7217 0.248179C25.3085 0.416149 24.9325 0.66446 24.6157 0.978764C24.2988 1.29307 24.0473 1.66713 23.8757 2.07934C23.7041 2.49156 23.6157 2.93374 23.6157 3.38035V11.3238C23.6157 12.6685 24.1492 13.9582 25.0987 14.9091C26.0483 15.8599 27.3361 16.3941 28.679 16.3941H36.6436C37.1645 16.3891 37.6773 16.2639 38.1421 16.0282C38.6069 15.7925 39.0111 15.4526 39.3235 15.0351C39.6358 14.6175 39.8478 14.1335 39.943 13.6206C40.0381 13.1076 40.0139 12.5796 39.8723 12.0776ZM28.6723 13.0139C28.2246 13.0139 27.7953 12.8358 27.4788 12.5189C27.1623 12.2019 26.9845 11.7721 26.9845 11.3238L26.971 3.39218C26.9833 3.38324 26.998 3.37796 27.0132 3.37697H27.0571C29.356 4.00414 31.4504 5.2241 33.1314 6.91509C34.8123 8.60609 36.021 10.709 36.6368 13.0139H28.6723Z" fill="black"/>
<path d="M39.8723 12.0776C39.0952 9.21706 37.5857 6.60929 35.4932 4.51234C33.4006 2.4154 30.7975 0.901974 27.9415 0.12184C27.642 0.041238 27.3334 0.000326476 27.0233 0.000152547C26.5773 -0.00409024 26.1349 0.080209 25.7217 0.248179C25.3085 0.416149 24.9325 0.66446 24.6157 0.978764C24.2988 1.29307 24.0473 1.66713 23.8757 2.07934C23.7041 2.49156 23.6157 2.93374 23.6157 3.38035V11.3238C23.6157 12.6685 24.1492 13.9582 25.0987 14.9091C26.0483 15.8599 27.3361 16.3941 28.679 16.3941H36.6436C37.1645 16.3891 37.6773 16.2639 38.1421 16.0282C38.6069 15.7925 39.0111 15.4526 39.3235 15.0351C39.6358 14.6175 39.8478 14.1335 39.943 13.6206C40.0381 13.1076 40.0139 12.5796 39.8723 12.0776ZM28.6723 13.0139C28.2246 13.0139 27.7953 12.8358 27.4788 12.5189C27.1623 12.2019 26.9845 11.7721 26.9845 11.3238L26.971 3.39218C26.9833 3.38324 26.998 3.37796 27.0132 3.37697H27.0571C29.356 4.00414 31.4504 5.2241 33.1314 6.91509C34.8123 8.60609 36.021 10.709 36.6368 13.0139H28.6723Z" fill="url(#paint1_linear_2549_336)"/>
<defs>
<linearGradient id="paint0_linear_2549_336" x1="-0.695653" y1="1.80498e-06" x2="44.4331" y2="5.56773" gradientUnits="userSpaceOnUse">
<stop stop-color="#17E1E1"/>
<stop offset="1" stop-color="#3675D4"/>
</linearGradient>
<linearGradient id="paint1_linear_2549_336" x1="-0.695653" y1="1.80498e-06" x2="44.4331" y2="5.56773" gradientUnits="userSpaceOnUse">
<stop stop-color="#17E1E1"/>
<stop offset="1" stop-color="#3675D4"/>
</linearGradient>
</defs>
</svg>
